<?xml version="1.0" encoding="iso-8859-1"?>
<!-- Generator: Adobe Illustrator 19.0.0, SVG Export Plug-In . SVG Version: 6.00 Build 0)  -->
<svg version="1.1" id="Capa_1" xmlns="http://www.w3.org/2000/svg" xmlns:xlink="http://www.w3.org/1999/xlink" x="0px" y="0px"
	 viewBox="0 0 505.883 505.883" style="enable-background:new 0 0 505.883 505.883;" xml:space="preserve">
<g>
	<g>
		<g>
			<path d="M207.081,193.975l-9.737,54.711l51.465-26.075c2.588-1.304,5.641-1.304,8.229,0l51.502,26.075l-9.737-54.729
				c-0.528-3.03,0.503-6.122,2.743-8.229l40.933-38.528l-56.905-7.973c-2.947-0.413-5.508-2.234-6.866-4.882l-25.765-50.286
				l-25.765,50.286c-1.358,2.648-3.919,4.469-6.866,4.882l-56.905,7.973l40.942,38.473
				C206.608,187.797,207.637,190.923,207.081,193.975z"/>
			<path d="M252.942,347.429c95.94,0,173.714-77.775,173.714-173.714S348.882,0,252.942,0S79.227,77.775,79.227,173.714
				C79.333,269.61,157.046,347.323,252.942,347.429z M187.717,304.969c-0.608,1.03-1.413,1.931-2.368,2.651
				c-2.9,2.345-6.945,2.662-10.175,0.798c-3.23-1.864-4.979-5.525-4.399-9.209c0.145-1.189,0.521-2.338,1.106-3.383
				c1.23-2.086,3.213-3.62,5.541-4.288c4.892-1.266,9.896,1.622,11.246,6.491C189.255,300.379,188.914,302.864,187.717,304.969z
				 M259.433,326.4c-3.605,3.536-9.377,3.536-12.983,0c-1.684-1.743-2.633-4.068-2.651-6.491c0.013-1.198,0.262-2.381,0.731-3.483
				c0.44-1.117,1.092-2.139,1.92-3.008c3.663-3.392,9.32-3.392,12.983,0c0.828,0.869,1.48,1.891,1.92,3.008
				c0.47,1.102,0.718,2.286,0.731,3.483C262.067,322.332,261.117,324.657,259.433,326.4z M334.898,302.629
				c-1.35,4.869-6.354,7.758-11.246,6.491c-2.329-0.665-4.313-2.201-5.541-4.288c-0.588-1.044-0.967-2.193-1.115-3.383
				c-0.58-3.684,1.169-7.345,4.399-9.209s7.275-1.547,10.175,0.798c0.958,0.719,1.766,1.62,2.377,2.651
				C335.14,297.796,335.481,300.279,334.898,302.629z M387.452,251.374v-0.046c-1.245,2.078-3.226,3.612-5.55,4.297
				c-2.345,0.598-4.83,0.271-6.939-0.914c-1.03-0.608-1.931-1.413-2.651-2.368c-2.345-2.9-2.662-6.945-0.798-10.175
				s5.525-4.979,9.209-4.399c1.189,0.145,2.338,0.521,3.383,1.106c2.087,1.228,3.623,3.212,4.288,5.541
				C388.968,246.771,388.632,249.256,387.452,251.374z M392.626,167.223v-0.009c0.869-0.828,1.891-1.48,3.008-1.92
				c1.102-0.47,2.286-0.718,3.483-0.731c2.424,0.018,4.748,0.967,6.491,2.651c3.536,3.605,3.536,9.378,0,12.983
				c-1.743,1.684-4.068,2.633-6.491,2.651c-1.198-0.013-2.381-0.262-3.483-0.731c-1.117-0.44-2.139-1.092-3.008-1.92
				C389.24,176.535,389.24,170.885,392.626,167.223z M370.665,98.249l0.018-0.009c0.343-1.149,0.901-2.223,1.646-3.163
				c0.719-0.959,1.62-1.766,2.651-2.377c2.111-1.18,4.594-1.508,6.939-0.914c4.869,1.35,7.758,6.354,6.491,11.246
				c-0.665,2.329-2.201,4.312-4.288,5.541c-1.043,0.589-2.193,0.965-3.383,1.106c-1.188,0.178-2.398,0.125-3.566-0.155
				C372.388,108.049,369.548,103.132,370.665,98.249z M317.042,45.934c0.134-1.186,0.497-2.335,1.07-3.383
				c1.228-2.087,3.212-3.623,5.541-4.288c4.889-1.267,9.892,1.617,11.246,6.482c0.599,2.348,0.271,4.836-0.914,6.949
				c-0.608,1.03-1.413,1.931-2.368,2.651c-2.9,2.345-6.945,2.662-10.175,0.798S316.462,49.618,317.042,45.934z M244.53,23.954
				c0.442-1.119,1.094-2.143,1.92-3.017c3.666-3.383,9.316-3.383,12.983,0c0.827,0.874,1.478,1.898,1.92,3.017
				c0.469,1.099,0.717,2.28,0.731,3.474c-0.018,2.424-0.967,4.748-2.651,6.491c-3.605,3.536-9.377,3.536-12.983,0
				c-1.684-1.743-2.633-4.068-2.651-6.491C243.813,26.234,244.062,25.053,244.53,23.954z M170.93,44.654
				c0.744-2.989,2.962-5.391,5.882-6.373c2.92-0.981,6.138-0.406,8.537,1.527c0.955,0.72,1.76,1.621,2.368,2.651
				c1.18,2.111,1.508,4.594,0.914,6.939c-1.35,4.869-6.354,7.758-11.246,6.491c-2.329-0.665-4.313-2.201-5.541-4.288
				c-0.585-1.045-0.961-2.194-1.106-3.383C170.572,47.03,170.637,45.819,170.93,44.654z M141.957,131.776l71.113-9.957
				l31.735-61.989c1.722-2.849,4.808-4.589,8.137-4.589c3.329,0,6.415,1.741,8.137,4.589l31.735,61.989l71.113,9.957
				c3.484,0.489,6.379,2.933,7.444,6.287c1.065,3.353,0.111,7.02-2.452,9.43l-51.246,48.165l12.069,67.886
				c0.607,3.413-0.768,6.876-3.551,8.943c-2.783,2.067-6.496,2.381-9.587,0.813l-63.662-32.265l-63.671,32.265
				c-3.091,1.563-6.8,1.246-9.58-0.82c-2.78-2.066-4.154-5.525-3.549-8.936l12.069-67.886l-51.2-48.146
				c-2.564-2.41-3.518-6.077-2.452-9.43c1.065-3.353,3.96-5.798,7.444-6.286L141.957,131.776z M117.508,97.648
				c0.981-2.92,3.384-5.137,6.373-5.882V91.73c1.168-0.276,2.378-0.329,3.566-0.155c1.189,0.146,2.338,0.521,3.383,1.106
				c2.086,1.23,3.62,3.213,4.288,5.541c1.266,4.892-1.622,9.896-6.491,11.246c-2.345,0.598-4.83,0.271-6.939-0.914
				c-1.03-0.608-1.931-1.413-2.651-2.368C117.103,103.787,116.527,100.568,117.508,97.648z M113.147,180.206v0.027
				c-1.748,1.674-4.071,2.613-6.491,2.624c-1.195-0.014-2.375-0.263-3.474-0.731c-1.119-0.442-2.143-1.094-3.017-1.92
				c-3.383-3.666-3.383-9.316,0-12.983c0.874-0.827,1.898-1.478,3.017-1.92c1.099-0.469,2.28-0.717,3.474-0.731
				c2.424,0.018,4.748,0.967,6.491,2.651C116.683,170.828,116.683,176.6,113.147,180.206z M123.881,255.726v0.027
				c-2.989-0.745-5.391-2.962-6.373-5.882c-0.981-2.92-0.406-6.138,1.527-8.537c0.72-0.955,1.621-1.76,2.651-2.368
				c2.111-1.18,4.594-1.508,6.939-0.914c4.869,1.35,7.758,6.354,6.491,11.246c-0.665,2.329-2.201,4.313-4.288,5.541
				c-1.045,0.585-2.194,0.961-3.383,1.106C126.255,256.102,125.045,256.028,123.881,255.726z"/>
			<path d="M252.942,365.714c-36.606-0.001-72.438-10.542-103.214-30.363l-31.003,170.533l33.829-14.793l8.96-116.937
				c0.252-3.266,2.227-6.151,5.181-7.566c2.955-1.415,6.44-1.147,9.143,0.704c2.703,1.851,4.213,5.004,3.962,8.27l-8.229,107.227
				l72.229-31.625v-58.021c0-5.049,4.093-9.143,9.143-9.143c5.049,0,9.143,4.093,9.143,9.143v58.021l72.274,31.625l-8.274-107.227
				c-0.252-3.266,1.259-6.419,3.962-8.27c2.703-1.851,6.188-2.119,9.143-0.704c2.955,1.415,4.93,4.299,5.181,7.566l8.997,116.937
				l33.829,14.793l-31.04-170.533C325.38,355.172,289.548,365.713,252.942,365.714z"/>
		</g>
	</g>
</g>
<g>
</g>
<g>
</g>
<g>
</g>
<g>
</g>
<g>
</g>
<g>
</g>
<g>
</g>
<g>
</g>
<g>
</g>
<g>
</g>
<g>
</g>
<g>
</g>
<g>
</g>
<g>
</g>
<g>
</g>
</svg>
