<?xml version="1.0" encoding="iso-8859-1"?>
<!-- Generator: Adobe Illustrator 18.1.1, SVG Export Plug-In . SVG Version: 6.00 Build 0)  -->
<svg version="1.1" id="Capa_1" xmlns="http://www.w3.org/2000/svg" xmlns:xlink="http://www.w3.org/1999/xlink" x="0px" y="0px"
	 viewBox="0 0 308.231 308.231" style="enable-background:new 0 0 308.231 308.231;" xml:space="preserve">
<g>
	<g>
		<path style="fill:#010002;" d="M288.003,156.362c-13.038-13.038-30.342-20.216-48.731-20.216c-0.268,0-0.525,0.036-0.794,0.042
			c3.902-3.819,6.343-9.129,6.343-15.007c0-11.6-9.44-21.033-21.039-21.033h-33.963l-26.35-32.34
			c-3.89-4.768-9.636-7.59-15.412-7.721c-6.056-0.489-12.149,2.065-16.492,6.886l-35.175,38.832
			c-7.775,8.586-7.124,21.91,1.444,29.697l34.566,31.422v11.224c-10.514-24.661-34.996-41.995-63.452-41.995
			C30.926,136.152,0,167.084,0,205.099c0,38.027,30.932,68.965,68.947,68.965c29.745,0,55.08-18.975,64.729-45.432
			c2.888,8.181,10.615,14.088,19.768,14.088c9.881,0,18.133-6.868,20.383-16.063c9.076,27.495,34.96,47.407,65.457,47.407
			c38.015,0,68.947-30.938,68.947-68.965C308.225,186.709,301.046,169.405,288.003,156.362z M68.941,262.125
			c-31.439,0-57.013-25.58-57.013-57.031c0-31.439,25.58-57.013,57.013-57.013s57.013,25.574,57.013,57.013
			C125.955,236.545,100.381,262.125,68.941,262.125z M167.591,142.029l-25.92-23.545l4.642-5.12l17.191,21.111
			c4.022,4.917,9.965,7.739,16.307,7.739h31.32c-16.982,7.626-30.288,21.922-36.66,39.536v-24.136
			C174.477,151.702,171.965,146.021,167.591,142.029z M239.271,262.125c-31.439,0-57.019-25.58-57.019-57.031
			c0-31.439,25.58-57.013,57.019-57.013c15.204,0,29.506,5.937,40.294,16.719c10.788,10.788,16.719,25.091,16.719,40.294
			C296.285,236.545,270.711,262.125,239.271,262.125z"/>
		<path style="fill:#010002;" d="M200.672,84.837c13.968,0,25.335-11.367,25.335-25.335s-11.367-25.335-25.335-25.335
			c-13.968,0-25.335,11.367-25.335,25.335S186.703,84.837,200.672,84.837z"/>
	</g>
</g>
<g>
</g>
<g>
</g>
<g>
</g>
<g>
</g>
<g>
</g>
<g>
</g>
<g>
</g>
<g>
</g>
<g>
</g>
<g>
</g>
<g>
</g>
<g>
</g>
<g>
</g>
<g>
</g>
<g>
</g>
</svg>
