<?xml version="1.0" encoding="iso-8859-1"?>
<!-- Generator: Adobe Illustrator 19.0.0, SVG Export Plug-In . SVG Version: 6.00 Build 0)  -->
<svg version="1.1" id="Capa_1" xmlns="http://www.w3.org/2000/svg" xmlns:xlink="http://www.w3.org/1999/xlink" x="0px" y="0px"
	 viewBox="0 0 512.202 512.202" style="enable-background:new 0 0 512.202 512.202;" xml:space="preserve">
<g transform="translate(-1 -1)">
	<g>
		<g>
			<path d="M368.785,320.34c59.564-47.469,82.613-127.404,57.469-199.299C401.11,49.146,333.266,1,257.101,1
				S113.092,49.146,87.948,121.041s-2.095,151.83,57.469,199.299l-33.28,182.835c-0.552,3.103,0.652,6.258,3.131,8.205
				c2.479,1.947,5.829,2.368,8.713,1.097l133.12-58.24l133.12,58.24c1.075,0.474,2.238,0.718,3.413,0.717
				c2.531,0,4.931-1.123,6.553-3.065c1.622-1.943,2.297-4.505,1.844-6.995L368.785,320.34z M94.968,180.394
				C95.066,90.891,167.598,18.359,257.101,18.26c89.544,0,162.133,72.59,162.133,162.133s-72.59,162.133-162.133,162.133
				S94.968,269.937,94.968,180.394z M350.797,476.611l-8.363-109.141c-0.235-3.049-2.078-5.741-4.836-7.062
				c-2.758-1.321-6.01-1.071-8.533,0.657c-2.523,1.728-3.932,4.67-3.698,7.719l7.68,100.079l-67.413-29.517v-54.153
				c0-4.713-3.82-8.533-8.533-8.533s-8.533,3.82-8.533,8.533v54.153l-67.413,29.517l7.68-100.079
				c0.235-3.049-1.175-5.991-3.698-7.719c-2.523-1.728-5.776-1.978-8.533-0.657c-2.758,1.321-4.601,4.013-4.836,7.062
				l-8.397,109.141l-31.573,13.807l28.937-159.164c58.664,37.785,134.001,37.785,192.666,0l28.971,159.164L350.797,476.611z"/>
			<path d="M257.101,52.394c2.259-0.033,4.422-0.917,6.059-2.475c1.572-1.627,2.458-3.796,2.475-6.059
				c-0.013-1.115-0.245-2.217-0.683-3.243c-0.412-1.044-1.021-2-1.792-2.816c-3.422-3.157-8.695-3.157-12.117,0
				c-0.771,0.816-1.38,1.772-1.792,2.816c-0.437,1.026-0.669,2.128-0.683,3.243c0.017,2.262,0.903,4.431,2.475,6.059
				C252.679,51.477,254.842,52.36,257.101,52.394z"/>
			<path d="M263.16,322.883c1.572-1.627,2.458-3.796,2.475-6.059c-0.012-1.118-0.244-2.223-0.683-3.251
				c-0.41-1.043-1.019-1.996-1.792-2.807c-3.419-3.166-8.699-3.166-12.117,0c-0.773,0.811-1.382,1.765-1.792,2.807
				c-0.438,1.029-0.67,2.133-0.683,3.251c0.017,2.262,0.903,4.432,2.475,6.059C254.407,326.183,259.795,326.183,263.16,322.883z"/>
			<path d="M181.479,66.422c1.138,1.941,2.976,3.373,5.137,4.002c4.566,1.182,9.236-1.514,10.496-6.059
				c0.554-2.189,0.248-4.506-0.853-6.477c-0.568-0.962-1.319-1.802-2.21-2.475c-2.239-1.804-5.242-2.341-7.968-1.425
				s-4.795,3.158-5.49,5.948c-0.262,1.09-0.311,2.22-0.145,3.328C180.582,64.375,180.933,65.447,181.479,66.422z"/>
			<path d="M330.488,291.805c-0.878-0.695-1.88-1.216-2.953-1.536c-2.762-0.789-5.736-0.118-7.891,1.782
				c-2.155,1.9-3.195,4.766-2.758,7.605c0.139,1.11,0.492,2.182,1.041,3.157c1.146,1.948,2.998,3.381,5.171,4.002
				c4.566,1.182,9.236-1.514,10.496-6.059c0.554-2.189,0.248-4.506-0.853-6.477C332.16,293.314,331.395,292.473,330.488,291.805z"/>
			<path d="M132.122,117.307c0.672,0.891,1.513,1.642,2.475,2.21c1.969,1.106,4.288,1.412,6.477,0.853
				c4.545-1.26,7.24-5.93,6.059-10.496c-0.623-2.172-2.056-4.023-4.002-5.171c-0.975-0.546-2.048-0.897-3.157-1.033
				c-3.435-0.532-6.845,1.102-8.582,4.113c-1.738,3.011-1.447,6.78,0.732,9.489V117.307z"/>
			<path d="M379.52,241.219c-0.975-0.546-2.048-0.897-3.157-1.033c-3.436-0.532-6.845,1.102-8.582,4.113
				c-1.738,3.011-1.447,6.78,0.732,9.489c0.672,0.892,1.513,1.642,2.475,2.21c1.969,1.106,4.288,1.412,6.477,0.853
				c4.545-1.26,7.24-5.93,6.059-10.496C382.894,244.195,381.462,242.357,379.52,241.219z"/>
			<path d="M120.568,171.86c-1.115,0.013-2.217,0.245-3.243,0.683c-1.044,0.412-2,1.021-2.816,1.792
				c-3.157,3.422-3.157,8.695,0,12.117c0.816,0.771,1.772,1.38,2.816,1.792c1.026,0.437,2.128,0.669,3.243,0.683
				c2.262-0.017,4.431-0.903,6.059-2.475c3.3-3.365,3.3-8.752,0-12.117C124.999,172.763,122.83,171.877,120.568,171.86z"/>
			<path d="M390.281,188.244c1.029,0.438,2.133,0.67,3.251,0.683c2.262-0.017,4.432-0.903,6.059-2.475c3.3-3.365,3.3-8.752,0-12.117
				c-1.627-1.572-3.796-2.458-6.059-2.475c-1.118,0.012-2.223,0.244-3.251,0.683c-1.043,0.41-1.996,1.019-2.807,1.792
				c-3.166,3.419-3.166,8.698,0,12.117C388.285,187.225,389.238,187.834,390.281,188.244z"/>
			<path d="M141.073,240.383c-2.189-0.554-4.506-0.248-6.477,0.853c-0.962,0.568-1.802,1.319-2.475,2.21
				c-1.804,2.239-2.341,5.242-1.425,7.968s3.158,4.795,5.948,5.49c1.09,0.262,2.22,0.311,3.328,0.145
				c1.11-0.136,2.182-0.486,3.157-1.033c1.941-1.138,3.373-2.976,4.002-5.137C148.314,246.313,145.618,241.643,141.073,240.383z"/>
			<path d="M373.035,120.455c1.09,0.262,2.22,0.311,3.328,0.145c1.11-0.132,2.184-0.483,3.157-1.033
				c1.948-1.146,3.381-2.998,4.002-5.171c1.182-4.566-1.514-9.236-6.059-10.496c-2.189-0.554-4.506-0.248-6.477,0.853
				c-0.962,0.57-1.803,1.324-2.475,2.219c-0.695,0.878-1.216,1.88-1.536,2.953C365.927,114.48,368.57,119.073,373.035,120.455z"/>
			<path d="M193.101,291.242c-1.977-1.091-4.293-1.396-6.485-0.853c-2.172,0.623-4.023,2.056-5.171,4.002
				c-0.546,0.975-0.897,2.048-1.033,3.157c-0.532,3.436,1.102,6.845,4.113,8.582c3.011,1.738,6.78,1.447,9.489-0.732
				c0.891-0.672,1.642-1.513,2.21-2.475c1.106-1.969,1.412-4.288,0.853-6.477C196.452,294.274,195.033,292.416,193.101,291.242z"/>
			<path d="M327.501,70.518h0.034c1.075-0.32,2.08-0.841,2.961-1.536c0.892-0.672,1.642-1.513,2.21-2.475
				c1.107-1.972,1.412-4.294,0.853-6.485c-1.264-4.541-5.933-7.232-10.496-6.05c-2.173,0.621-4.025,2.054-5.171,4.002
				c-0.546,0.975-0.897,2.048-1.033,3.157c-0.445,2.84,0.591,5.71,2.747,7.611C321.762,70.644,324.739,71.314,327.501,70.518z"/>
			<path d="M316.527,273.339c2.885,1.459,6.346,1.163,8.941-0.765c2.595-1.928,3.877-5.157,3.313-8.34l-11.264-63.36l47.829-44.937
				c2.393-2.249,3.283-5.672,2.289-8.801c-0.994-3.13-3.696-5.411-6.948-5.867l-66.372-9.293l-29.619-57.873
				c-1.607-2.659-4.488-4.283-7.595-4.283s-5.987,1.625-7.595,4.283l-29.619,57.856l-66.372,9.293
				c-3.252,0.456-5.954,2.738-6.948,5.867c-0.994,3.13-0.104,6.552,2.289,8.801l47.829,44.954l-11.264,63.36
				c-0.567,3.185,0.716,6.418,3.314,8.346c2.598,1.929,6.063,2.223,8.948,0.759l59.418-30.114L316.527,273.339z M205.21,250.367
				l9.088-51.081c0.493-2.828-0.469-5.713-2.56-7.68l-38.204-35.959l53.112-7.407c2.75-0.385,5.141-2.085,6.409-4.557l24.047-46.967
				l24.047,46.933c1.267,2.471,3.658,4.171,6.409,4.557l53.112,7.441l-38.212,35.908c-2.091,1.967-3.053,4.852-2.56,7.68
				l9.096,51.132l-48.034-24.32c-2.415-1.217-5.265-1.217-7.68,0L205.21,250.367z"/>
		</g>
	</g>
</g>
<g>
</g>
<g>
</g>
<g>
</g>
<g>
</g>
<g>
</g>
<g>
</g>
<g>
</g>
<g>
</g>
<g>
</g>
<g>
</g>
<g>
</g>
<g>
</g>
<g>
</g>
<g>
</g>
<g>
</g>
</svg>
